# xmcd
#
# Track frame offsets:
#	150
#	10787
#	21325
#	32735
#	41707
#	50405
#	61745
#	72485
#	84100
#	95000
#	105715
#	114960
#	125070
#	136717
#	146650
#	157572
#	170577
#	180067
#	189027
#	199730
#	212462
#	223677
#
# Disc length: 3092 seconds
#
# Revision: 1
# Processed by: cddbd v1.5.2PL0 Copyright (c) Steve Scherf et al.
# Submitted via: audiograbber 1.83.01
#
DISCID=1f0c1216
DTITLE=Various Artist - Stompin' 21
DYEAR=1900
DGENRE=Rhythm and Blues
TTITLE0=Jimmy Good - Watch Dog
TTITLE1=Lenny Johnson - Walk Ginny Walk
TTITLE2=Phil Flowers - The Dances
TTITLE3=The Premiers - Run Along Baby
TTITLE4=Duane Yates - Hold It
TTITLE5=Sammy Taylor - Switchin' In The Kitchen
TTITLE6=Al Garris - That's All
TTITLE7=Skip Manning - Ham 'n' Eggs
TTITLE8=Flash Terry - On My Way Back Home
TTITLE9=The Egyptians - Flipping Their Top
TTITLE10=Little Mummy - Oh Baby Please
TTITLE11=Cliff Chambers - Don't Talk Back
TTITLE12=Don and Dewey - Kill Me
TTITLE13=Johnny Williams - Teach Me How
TTITLE14=Fabulous Little Joe Arlee Carruthers - Down In New Orleans
TTITLE15=Fabulous Little Joe Arlee Carruthers - Hot Wire Baby
TTITLE16=Lil' Preacher Roy - Won'tcha Be My Girl
TTITLE17=Little Mummy - Where You At Jack
TTITLE18=The Egyptians - That's Alright
TTITLE19=Bill Watts - Let's Go Steady
TTITLE20=Piano Slim - Whammy In The Gizzmo
TTITLE21=Kid Guitar Thompson - My Baby Done Me Wrong
EXTD=
EXTT0=
EXTT1=
EXTT2=
EXTT3=
EXTT4=
EXTT5=
EXTT6=
EXTT7=
EXTT8=
EXTT9=
EXTT10=
EXTT11=
EXTT12=
EXTT13=
EXTT14=
EXTT15=
EXTT16=
EXTT17=
EXTT18=
EXTT19=
EXTT20=
EXTT21=
PLAYORDER=
